<svg xmlns="http://www.w3.org/2000/svg" width="834" height="128" viewBox="0 0 417 64" role="img" aria-label="Excel MCP Server"><title>Excel MCP Server</title><rect width="64" height="64" rx="14" fill="#22A559"/><path d="M18 18L50 50" stroke="#fff" stroke-width="3" stroke-linecap="round"/><rect x="12" y="12" width="12" height="12" rx="3" fill="#fff"/><rect x="28" y="12" width="12" height="12" rx="3" fill="#fff" fill-opacity="0.45"/><rect x="44" y="12" width="12" height="12" rx="3" fill="#fff" fill-opacity="0.45"/><rect x="12" y="28" width="12" height="12" rx="3" fill="#fff" fill-opacity="0.45"/><rect x="28" y="28" width="12" height="12" rx="3" fill="#fff"/><rect x="44" y="28" width="12" height="12" rx="3" fill="#fff" fill-opacity="0.45"/><rect x="12" y="44" width="12" height="12" rx="3" fill="#fff" fill-opacity="0.45"/><rect x="28" y="44" width="12" height="12" rx="3" fill="#fff" fill-opacity="0.45"/><rect x="44" y="44" width="12" height="12" rx="3" fill="#fff"/><path fill="#F8FAFC" d="M85.12 18.21H102.37V23.04H91.51V27.66H101.72V32.49H91.51V38.17H102.74V43H85.12ZM112.78 33.49 106.07 24.41H112.36L116.17 29.92L120.02 24.41H126.31L119.6 33.45L126.64 43H120.35L116.17 37.12L112.03 43H105.74ZM145.04 24.99V29.83Q143.82 29 142.6 28.61Q141.38 28.21 140.07 28.21Q137.58 28.21 136.2 29.66Q134.81 31.11 134.81 33.72Q134.81 36.33 136.2 37.78Q137.58 39.23 140.07 39.23Q141.47 39.23 142.72 38.82Q143.97 38.4 145.04 37.59V42.45Q143.64 42.97 142.21 43.22Q140.77 43.48 139.33 43.48Q134.29 43.48 131.46 40.9Q128.62 38.32 128.62 33.72Q128.62 29.12 131.46 26.54Q134.29 23.96 139.33 23.96Q140.79 23.96 142.21 24.22Q143.62 24.47 145.04 24.99ZM168.73 33.65V35.35H154.83Q155.05 37.44 156.34 38.48Q157.64 39.53 159.96 39.53Q161.84 39.53 163.8 38.97Q165.77 38.42 167.85 37.29V41.87Q165.74 42.67 163.63 43.07Q161.52 43.48 159.41 43.48Q154.37 43.48 151.57 40.92Q148.77 38.35 148.77 33.72Q148.77 29.17 151.52 26.56Q154.27 23.96 159.08 23.96Q163.46 23.96 166.1 26.6Q168.73 29.24 168.73 33.65ZM162.62 31.68Q162.62 29.98 161.63 28.95Q160.64 27.91 159.05 27.91Q157.32 27.91 156.24 28.88Q155.16 29.85 154.9 31.68ZM173.23 17.17H179.17V43H173.23Z"/><path fill="#4ADE80" d="M194.15 18.21H202.28L207.92 31.48L213.6 18.21H221.72V43H215.68V24.87L209.97 38.24H205.92L200.21 24.87V43H194.15ZM247.64 41.64Q245.88 42.55 243.97 43.02Q242.06 43.48 239.98 43.48Q233.79 43.48 230.17 40.02Q226.55 36.56 226.55 30.63Q226.55 24.69 230.17 21.23Q233.79 17.77 239.98 17.77Q242.06 17.77 243.97 18.23Q245.88 18.7 247.64 19.61V24.74Q245.86 23.53 244.13 22.96Q242.41 22.4 240.5 22.4Q237.08 22.4 235.12 24.59Q233.16 26.78 233.16 30.63Q233.16 34.47 235.12 36.66Q237.08 38.85 240.5 38.85Q242.41 38.85 244.13 38.29Q245.86 37.72 247.64 36.51ZM252.93 18.21H263.54Q268.27 18.21 270.8 20.31Q273.33 22.41 273.33 26.3Q273.33 30.2 270.8 32.3Q268.27 34.4 263.54 34.4H259.32V43H252.93ZM259.32 22.85V29.77H262.86Q264.72 29.77 265.73 28.86Q266.74 27.96 266.74 26.3Q266.74 24.64 265.73 23.74Q264.72 22.85 262.86 22.85ZM306.94 18.99V24.24Q304.89 23.33 302.95 22.86Q301.01 22.4 299.28 22.4Q296.99 22.4 295.9 23.03Q294.8 23.66 294.8 24.99Q294.8 25.98 295.54 26.54Q296.28 27.1 298.22 27.49L300.94 28.04Q305.08 28.87 306.82 30.57Q308.56 32.26 308.56 35.38Q308.56 39.48 306.13 41.48Q303.7 43.48 298.7 43.48Q296.34 43.48 293.97 43.03Q291.6 42.58 289.22 41.71V36.31Q291.6 37.57 293.81 38.21Q296.03 38.85 298.09 38.85Q300.18 38.85 301.29 38.15Q302.4 37.46 302.4 36.16Q302.4 35 301.65 34.37Q300.89 33.74 298.64 33.24L296.16 32.69Q292.44 31.89 290.73 30.15Q289.01 28.41 289.01 25.45Q289.01 21.75 291.4 19.76Q293.79 17.77 298.27 17.77Q300.31 17.77 302.47 18.07Q304.63 18.38 306.94 18.99ZM332.47 33.65V35.35H318.57Q318.79 37.44 320.08 38.48Q321.38 39.53 323.7 39.53Q325.58 39.53 327.55 38.97Q329.51 38.42 331.59 37.29V41.87Q329.48 42.67 327.37 43.07Q325.26 43.48 323.16 43.48Q318.11 43.48 315.31 40.92Q312.51 38.35 312.51 33.72Q312.51 29.17 315.26 26.56Q318.01 23.96 322.82 23.96Q327.21 23.96 329.84 26.6Q332.47 29.24 332.47 33.65ZM326.36 31.68Q326.36 29.98 325.37 28.95Q324.38 27.91 322.79 27.91Q321.06 27.91 319.99 28.88Q318.91 29.85 318.64 31.68ZM350.78 29.47Q350 29.1 349.23 28.93Q348.46 28.76 347.68 28.76Q345.39 28.76 344.15 30.23Q342.91 31.69 342.91 34.43V43H336.97V24.41H342.91V27.46Q344.06 25.63 345.54 24.8Q347.03 23.96 349.1 23.96Q349.4 23.96 349.75 23.98Q350.1 24.01 350.76 24.09ZM351.4 24.41H357.34L361.97 37.26L366.59 24.41H372.55L365.22 43H358.7ZM394.46 33.65V35.35H380.56Q380.78 37.44 382.08 38.48Q383.37 39.53 385.69 39.53Q387.57 39.53 389.54 38.97Q391.5 38.42 393.58 37.29V41.87Q391.47 42.67 389.36 43.07Q387.25 43.48 385.15 43.48Q380.1 43.48 377.3 40.92Q374.5 38.35 374.5 33.72Q374.5 29.17 377.25 26.56Q380 23.96 384.81 23.96Q389.2 23.96 391.83 26.6Q394.46 29.24 394.46 33.65ZM388.35 31.68Q388.35 29.98 387.36 28.95Q386.38 27.91 384.78 27.91Q383.05 27.91 381.98 28.88Q380.9 29.85 380.63 31.68ZM412.77 29.47Q411.99 29.1 411.22 28.93Q410.45 28.76 409.67 28.76Q407.38 28.76 406.14 30.23Q404.9 31.69 404.9 34.43V43H398.96V24.41H404.9V27.46Q406.05 25.63 407.53 24.8Q409.02 23.96 411.09 23.96Q411.39 23.96 411.74 23.98Q412.09 24.01 412.75 24.09Z"/></svg>
